<svg id="Layer_1" data-name="Layer 1" xmlns="http://www.w3.org/2000/svg" viewBox="0 0 301.65 290.3"><defs><style>.cls-1,.cls-14{fill:#344881;}.cls-2{fill:#384b7e;}.cls-3{fill:#384a7e;}.cls-4{fill:#c8cedb;}.cls-5{fill:#f6f7f9;}.cls-13,.cls-6{fill:#2a407c;}.cls-7{fill:#273e7c;}.cls-8{fill:#273c75;}.cls-9{fill:#2f3e69;}.cls-10{fill:#e7ecf6;}.cls-11{fill:#455380;}.cls-12{fill:#fff;stroke:#000;stroke-miterlimit:10;}.cls-13{font-size:19px;}.cls-13,.cls-14{font-family:TwCenMT-CondensedExtraBold, Tw Cen MT Condensed Extra Bold;font-weight:800;}.cls-14{font-size:20.42px;}</style></defs><title>SWE LOGO</title><path class="cls-1" d="M618.55,770.85c20.92-1.57,40.26,2.89,59,10.29a144.36,144.36,0,0,1,44.57,27.64c8.62,7.85,16.63,16.14,23.22,25.73,7.21,10.5,13.52,21.54,17.32,33.8,2.09,6.77,4.44,13.53,5.71,20.47,2.47,13.51,2.56,27.14,1.6,40.88-1,14-4.67,27.24-10,40.05a146.53,146.53,0,0,1-21.17,35.07c-9.09,11.45-20,20.86-31.79,29.22a144.33,144.33,0,0,1-34.6,17.57,154.59,154.59,0,0,1-64.3,8.69c-14.59-1-29.23-3.44-42.72-9.69-10.83-5-21.9-9.83-31.9-16.24a136.22,136.22,0,0,1-37.92-36.61c-8-11.41-14.7-23.46-19.11-36.68a147.75,147.75,0,0,1-7.2-35.73c-1.87-24.34,2.74-47.23,12.92-69.25a148.76,148.76,0,0,1,86.37-77.34C584.8,773.11,601.58,769,618.55,770.85Zm4.21,283c33.59-.3,66.43-11.58,94-36.11,36-32,52.05-72.27,46-120.38C758.15,860.48,740,830.77,711,808c-30.08-23.56-64.61-33.47-102.74-30.59-32.31,2.44-60.94,14-85.22,35.52-34.17,30.33-50.41,68.33-46.7,114.07,3.21,39.56,21.67,71.27,52.52,95.69C555.3,1043.67,585.83,1053.65,622.76,1053.88Z" transform="translate(-468.85 -770.39)"/><path class="cls-2" d="M620.82,780.58c49,1.68,89.25,21.26,117.34,62.65,34.46,50.77,28,118.7-14.74,162.77-30.29,31.25-67.57,46-110.76,43.45-52.74-3.14-93.53-27.78-117.81-75-23.64-46-19.92-92,9.7-134.33C532.33,800.42,572.21,782.06,620.82,780.58Zm-3.71,266c46.66-.92,83.35-17,110.8-51,28.83-35.74,36.39-76.44,22.22-120.19C733,822.61,682.54,786.33,626,784.48c-42.63-1.41-78.9,13.29-108.36,44.48-37.87,40.11-45.27,103.3-16.52,150.38C528.2,1023.66,568.81,1044.86,617.11,1046.61Z" transform="translate(-468.85 -770.39)"/><path class="cls-3" d="M518.67,919.68c.07-56.16,45.39-101.78,101-101.7S720.3,863.59,720.31,919.63c0,56.35-45,101.87-100.76,101.85S518.59,975.77,518.67,919.68Zm101.06-98.39c-53.34-.21-97.34,44-97.62,98.08-.28,53.91,43.48,98.56,96.87,98.84,53.59.28,97.83-44,98-98.09S673.39,821.5,619.73,821.29Z" transform="translate(-468.85 -770.39)"/><path class="cls-4" d="M540.8,830.19l1.46.64Z" transform="translate(-468.85 -770.39)"/><path class="cls-4" d="M541.58,995.73l-1.1-.34Z" transform="translate(-468.85 -770.39)"/><path class="cls-4" d="M657.84,1021.17l-.7.25Z" transform="translate(-468.85 -770.39)"/><path class="cls-5" d="M657.77,1028.1l.52.06-.07.31-.39-.44Z" transform="translate(-468.85 -770.39)"/><path class="cls-5" d="M536.65,836.05l2.7,1.52Z" transform="translate(-468.85 -770.39)"/><path class="cls-5" d="M552.83,823.31l-.37.48-.2-.31.54-.21Z" transform="translate(-468.85 -770.39)"/><path class="cls-6" d="M573.91,979.48c-4.88-6-9.23-11.05-13.28-16.39a5.69,5.69,0,0,1-.49-4.52q4.33-13.32,9.16-26.49A12,12,0,0,1,573,926.7c7.54-5.53,15.3-10.74,23.29-16.28-3-2.14-6-4.58-9.35-6.62-8.7-5.38-11.19-13.42-8.74-22.65a107.9,107.9,0,0,1,8.2-20.76c3-6,7.1-11.43,10.89-17,11.33-16.65,32.93-18.46,45-2.53,8.57,11.27,16.88,23.35,19.48,37.93a45.06,45.06,0,0,1,.31,11.89c-.34,3.79-2.92,6.44-6.08,8.56-5,3.39-9.94,7-14.46,10.14a75.91,75.91,0,0,1,8.49,4.15c5.24,3.38,10.17,7.26,15.44,10.6a14.56,14.56,0,0,1,6.32,8.45c2.43,7.87,4.82,15.75,7.33,23.59,1.25,3.92.5,6.94-2.91,9.53s-6.58,5.65-10.56,9.13v-6.67c0-6.38.11-12.75-.06-19.12-.17-6.65-4.57-11-11.22-11q-34.49-.1-69,0c-6.83,0-11.42,4.71-11.49,11.64C573.83,959.29,573.91,968.9,573.91,979.48Zm53.15-141.17-.44-.49-.14.44.64,0c1.4,1.93,2.7,3.95,4.24,5.76,6.11,7.15,12.31,14.23,18.47,21.33l.84-.44c-.49-1.42-.68-3.06-1.52-4.24-3.6-5-7-10.33-11.27-14.8C634.92,842.72,630.71,840.78,627.06,838.31Zm-6.74,35c-5.37,0-10.75-.06-16.11,0a28.78,28.78,0,0,0-4.75.75c-2.38.44-3,1.64-2.13,4,2.45,7.07,4.63,14.23,7.1,21.29a5.69,5.69,0,0,0,2.73,3.09c12.91,5.55,12.93,5.51,25.71-.36a3.33,3.33,0,0,0,1-.49c1.14-1.18,2.71-2.23,3.23-3.66,2.19-6,4-12.05,6-18.08,1.6-4.79,1.29-5.4-3.74-6.39a18.79,18.79,0,0,0-3.36-.2C630.81,873.26,625.56,873.28,620.32,873.28Zm28.17-3.06a25.51,25.51,0,0,0-2.18-3.61c-8.09-9.35-16.36-18.55-24.29-28-2.19-2.61-3.86-2.55-6.62-1.19-9.08,4.45-15.48,11.66-20.93,19.85a53.88,53.88,0,0,0-8.31,18.44c11.63-9.82,24.92-11.05,38.18-11.32l-4.58-8.43,1-.64c5.1,3.18,6.68,11.38,15.1,10.44-.9-1.12-1.62-2.07-2.39-3-3.76-4.34-7.64-8.58-11.24-13-1.15-1.44-1.55-3.47-2.29-5.23l1.1-.61c4.48,5.15,8.89,10.35,13.44,15.43C638.4,863.62,641.49,868.93,648.49,870.22Z" transform="translate(-468.85 -770.39)"/><path class="cls-7" d="M660.16,987.09c-1.67,3.06-4.35,4.18-7.73,4.18-21.74,0-43.49,0-65.23,0-5.75,0-9-3.36-9.08-9.12q-.09-15.75,0-31.49c0-6,3.24-9.37,9.22-9.39q32.63-.09,65.24,0c5.09,0,7.62,2.27,8.82,7.35a4.31,4.31,0,0,0-.53,1.34Q660.49,968.5,660.16,987.09Zm-46.34-27.31c-5.32,2.09-9.63,3.67-13.83,5.48-2.21,1-2.39,2.82-.24,3.83,4.25,2,8.7,3.52,13.07,5.25l.78-1.17c-1-4.57-6.93-3-9.09-5.93C606.84,964.22,612.69,966,613.82,959.78Zm13,14.57c4.43-1.76,8.84-3.4,13.1-5.36.55-.26.72-3.11.38-3.26-4.45-2.05-9-3.82-14.32-6,.93,6.42,7.23,4.39,9.5,7.89-2,.78-3.91,1.38-5.69,2.23S625.23,970.71,626.84,974.35Zm-2-17.63c-1.28.24-2.43.22-2.52.51-2.28,7.63-4.45,15.29-6.64,22.95l1.56.49C620.82,973.24,621.72,964.89,624.84,956.72Z" transform="translate(-468.85 -770.39)"/><path class="cls-8" d="M659.34,993.5v3.63c-1.19.06-2.16.16-3.13.16H583.59a5,5,0,0,1-2.21-.1,2.63,2.63,0,0,1-1.29-1.8,2.94,2.94,0,0,1,1.13-2c.39-.32,1.2-.14,1.82-.14h74.49A16.76,16.76,0,0,1,659.34,993.5Z" transform="translate(-468.85 -770.39)"/><path class="cls-9" d="M660.16,987.09q.35-18.58.7-37.17a4.31,4.31,0,0,1,.53-1.34c.07,11.46.18,22.93.13,34.39C661.52,984.35,660.64,985.72,660.16,987.09Z" transform="translate(-468.85 -770.39)"/><path class="cls-10" d="M627.12,838.23l-.64,0,.14-.44.44.49Z" transform="translate(-468.85 -770.39)"/><path class="cls-11" d="M626,887.21h-6v-9.59Z" transform="translate(-468.85 -770.39)"/><path class="cls-12" d="M617.33,913.73" transform="translate(-468.85 -770.39)"/><path class="cls-10" d="M512.53,968.69" transform="translate(-468.85 -770.39)"/><text class="cls-13" transform="translate(54.94 225.44) rotate(47.45) scale(1.12 1)">S</text><text class="cls-13" transform="matrix(0.83, 0.75, -0.67, 0.74, 61.74, 232.88)">O</text><text class="cls-13" transform="matrix(0.89, 0.68, -0.6, 0.8, 71.15, 241.27)">F</text><text class="cls-13" transform="matrix(0.94, 0.61, -0.54, 0.84, 78.37, 246.71)">T</text><text class="cls-13" transform="translate(86.13 251.92) rotate(26.6) scale(1.12 1)">W</text><text class="cls-13" transform="translate(100.96 259.16) rotate(19.93) scale(1.12 1)">A</text><text class="cls-13" transform="matrix(1.08, 0.28, -0.25, 0.97, 112.33, 263.23)">R</text><text class="cls-13" transform="translate(123.5 266.04) rotate(9.81) scale(1.12 1)">E</text><text class="cls-13" transform="translate(132.68 267.56) rotate(6.65) scale(1.12 1)"> </text><text class="cls-13" transform="matrix(1.12, 0.07, -0.06, 1, 138.28, 268.25)">E</text><text class="cls-13" transform="translate(147.85 268.94) rotate(-1.32) scale(1.12 1)">N</text><text class="cls-13" transform="translate(161.92 268.54) rotate(-7.51) scale(1.12 1)">G</text><text class="cls-13" transform="translate(174.32 266.76) rotate(-12.21) scale(1.12 1)">I</text><text class="cls-13" transform="matrix(1.07, -0.33, 0.3, 0.95, 181.27, 265.38)">N</text><text class="cls-13" transform="matrix(1.03, -0.44, 0.39, 0.92, 194.6, 261.06)">E</text><text class="cls-13" transform="translate(203.33 257.3) rotate(-27.68) scale(1.12 1)">E</text><text class="cls-13" transform="translate(211.82 252.86) rotate(-32.59) scale(1.12 1)">R</text><text class="cls-13" transform="translate(221.38 246.62) rotate(-36.69) scale(1.12 1)">I</text><text class="cls-13" transform="translate(227.05 242.53) rotate(-41.16) scale(1.12 1)">N</text><text class="cls-13" transform="translate(237.53 233.27) rotate(-46.66) scale(1.12 1)">G</text><text class="cls-14" transform="matrix(0.14, -0.9, 0.99, 0.15, 40.24, 141.33)">X</text><text class="cls-14" transform="translate(41.7 132.04) rotate(-78.7) scale(0.91 1)">I</text><text class="cls-14" transform="translate(42.69 126.77) rotate(-75.89) scale(0.91 1)">A</text><text class="cls-14" transform="matrix(0.29, -0.86, 0.95, 0.32, 44.93, 117.45)">M</text><text class="cls-14" transform="matrix(0.36, -0.84, 0.92, 0.4, 49.39, 104.61)">E</text><text class="cls-14" transform="matrix(0.43, -0.8, 0.88, 0.47, 52.29, 97.69)">N</text><text class="cls-14" transform="matrix(0.48, -0.77, 0.85, 0.53, 57.66, 87.77)"> </text><text class="cls-14" transform="matrix(0.53, -0.74, 0.81, 0.59, 59.84, 84.06)">U</text><text class="cls-14" transform="matrix(0.61, -0.67, 0.74, 0.67, 65.7, 75.89)">N</text><text class="cls-14" transform="matrix(0.67, -0.62, 0.68, 0.74, 73.34, 67.67)">I</text><text class="cls-14" transform="matrix(0.72, -0.56, 0.61, 0.79, 77.14, 64.03)">V</text><text class="cls-14" transform="translate(85.03 58) rotate(-32.06) scale(0.91 1)">E</text><text class="cls-14" transform="matrix(0.81, -0.41, 0.45, 0.89, 91.32, 54)">R</text><text class="cls-14" transform="translate(99.5 49.89) rotate(-21.68) scale(0.91 1)">S</text><text class="cls-14" transform="translate(106.87 47) rotate(-17.89) scale(0.91 1)">I</text><text class="cls-14" transform="translate(111.96 45.33) rotate(-14.49) scale(0.91 1)">T</text><text class="cls-14" transform="matrix(0.9, -0.16, 0.18, 0.98, 118.84, 43.5)">Y</text><text class="cls-14" transform="translate(128 41.89) rotate(-7.21) scale(0.91 1)"> </text><text class="cls-14" transform="translate(132.29 41.19) rotate(-3.42) scale(0.91 1)">M</text><text class="cls-14" transform="translate(145.89 40.5) rotate(0.39) scale(0.91 1)">A</text><text class="cls-14" transform="matrix(0.91, 0.06, -0.06, 1, 155.57, 40.64)">L</text><text class="cls-14" transform="matrix(0.9, 0.1, -0.11, 0.99, 162.2, 41)">A</text><text class="cls-14" transform="matrix(0.9, 0.15, -0.17, 0.99, 170.78, 41.94)">Y</text><text class="cls-14" transform="matrix(0.89, 0.21, -0.23, 0.97, 179.91, 43.52)">S</text><text class="cls-14" transform="translate(187.65 45.4) rotate(16.61) scale(0.91 1)">I</text><text class="cls-14" transform="translate(192.78 46.84) rotate(20.43) scale(0.91 1)">A</text><text class="cls-14" transform="matrix(0.83, 0.37, -0.41, 0.91, 201.78, 50.28)"> </text><text class="cls-14" transform="translate(205.77 52) rotate(27.78) scale(0.91 1)">S</text><text class="cls-14" transform="matrix(0.77, 0.49, -0.53, 0.85, 212.74, 55.68)">T</text><text class="cls-14" transform="translate(218.74 59.37) rotate(37.68) scale(0.91 1)">U</text><text class="cls-14" transform="matrix(0.66, 0.63, -0.69, 0.72, 226.71, 65.52)">D</text><text class="cls-14" transform="translate(233.56 72.16) rotate(49.31) scale(0.91 1)">E</text><text class="cls-14" transform="matrix(0.52, 0.75, -0.82, 0.57, 238.47, 77.71)">N</text><text class="cls-14" transform="translate(244.83 86.95) rotate(60.34) scale(0.91 1)">T</text><text class="cls-14" transform="matrix(0.41, 0.81, -0.9, 0.45, 248.36, 93.22)"> </text><text class="cls-14" transform="translate(250.37 97.04) rotate(67.33) scale(0.91 1)">U</text><text class="cls-14" transform="translate(254.3 106.37) rotate(72.5) scale(0.91 1)">N</text><text class="cls-14" transform="translate(257.61 117.18) rotate(76.21) scale(0.91 1)">I</text><text class="cls-14" transform="matrix(0.17, 0.89, -0.98, 0.18, 258.96, 122.36)">O</text><text class="cls-14" transform="translate(260.84 132.33) rotate(83.79) scale(0.91 1)">N</text></svg>